#!OML:ASF G:\JayActor3\Patient Classification 1\Patient 1\Session 5\male.ASF
:FULLY-SPECIFIED
:DEGREES
971
root -31.77 16.5857 -4.63946 -873.855 87.1704 -896.863
lowerback 28.9991 -1.15134 1.22023
upperback 5.99734 -0.613085 -0.402783
thorax -9.28074 -0.0982432 -0.974656
lowerneck 6.15465 -0.45094 0.655624
upperneck -18.1826 0.222673 2.64195
head -6.54077 -0.0155014 0.702962
rclavicle 2.44505e-014 4.36332e-014
rhumerus -27.8302 3.62281 -87.6447
rradius 35.0927
rwrist -3.23951
rhand -20.0222 -6.82598
rfingers 7.12502
rthumb 6.31837 -36.7117
lclavicle 2.44505e-014 4.36332e-014
lhumerus -29.4131 -7.63427 88.3483
lradius 34.7032
lwrist 24.208
lhand -19.862 10.5933
lfingers 7.12502
lthumb 6.47301 40.4744
rfemur -49.9542 -2.78478 30.3863
rtibia 50.1181
rfoot -24.5999 -11.6151
rtoes 8.84504
lfemur -65.8335 3.43069 -19.9153
ltibia 68.8243
lfoot -5.72511 -0.12727
ltoes -16.9101
972
root -31.8617 16.6071 -4.63731 -873.943 87.099 -897.045
lowerback 28.9197 -1.16788 1.2583
upperback 5.98896 -0.623661 -0.381351
thorax -9.25149 -0.10457 -0.968822
lowerneck 6.14261 -0.455781 0.67475
upperneck -18.1589 0.217767 2.64538
head -6.5311 -0.0193835 0.701136
rclavicle -1.07344e-014 -2.10712e-014
rhumerus -27.7953 3.54694 -87.6212
rradius 35.0418
rwrist -3.21262
rhand -20.0295 -6.80303
rfingers 7.12502
rthumb 6.31131 -36.689
lclavicle -1.07344e-014 -2.10712e-014
lhumerus -29.4763 -7.71446 88.3428
lradius 34.7412
lwrist 24.224
lhand -19.8537 10.5249
lfingers 7.12502
lthumb 6.48106 40.4057
rfemur -50.1829 -2.90169 30.4092
rtibia 49.6871
rfoot -24.1105 -11.6177
rtoes 8.4197
lfemur -65.5137 3.45967 -19.7353
ltibia 70.1658
lfoot -5.8776 0.37855
ltoes -17.0499
973
root -31.9527 16.6289 -4.63513 -874.086 87.0281 -897.274
lowerback 28.835 -1.18574 1.28989
upperback 5.98309 -0.637825 -0.360023
thorax -9.21681 -0.112302 -0.958145
lowerneck 6.12025 -0.459497 0.689168
upperneck -18.1146 0.212754 2.64998
head -6.513 -0.0230523 0.700398
rclavicle 3.97569e-016 -1.63003e-014
rhumerus -27.7596 3.46686 -87.6015
rradius 34.9994
rwrist -3.19192
rhand -20.0456 -6.76042
rfingers 7.12502
rthumb 6.29581 -36.6469
lclavicle 3.97569e-016 -1.63003e-014
lhumerus -29.5178 -7.77488 88.3276
lradius 34.7457
lwrist 24.2302
lhand -19.8381 10.4534
lfingers 7.12502
lthumb 6.49608 40.3338
rfemur -50.3922 -3.02634 30.4287
rtibia 49.2456
rfoot -23.646 -11.5497
rtoes 8.02627
lfemur -65.1348 3.50286 -19.5718
ltibia 71.4283
lfoot -5.91215 0.774451
ltoes -17.115
974
root -32.0431 16.6512 -4.63297 -874.288 86.9642 -897.552
lowerback 28.7485 -1.20195 1.31123
upperback 5.97835 -0.653077 -0.340013
thorax -9.17983 -0.120266 -0.942692
lowerneck 6.09818 -0.46307 0.697348
upperneck -18.0617 0.206876 2.65655
head -6.49221 -0.0269524 0.701373
rclavicle -1.36167e-014 -1.31198e-014
rhumerus -27.7254 3.38844 -87.5866
rradius 34.968
rwrist -3.17971
rhand -20.0694 -6.71682
rfingers 7.12502
rthumb 6.27279 -36.6039
lclavicle -1.36167e-014 -1.31198e-014
lhumerus -29.5499 -7.82808 88.3028
lradius 34.7321
lwrist 24.2352
lhand -19.8211 10.3982
lfingers 7.12502
lthumb 6.5125 40.2781
rfemur -50.5853 -3.15481 30.4437
rtibia 48.7962
rfoot -23.1669 -11.4431
rtoes 7.59197
lfemur -64.7001 3.55751 -19.4217
ltibia 72.6148
lfoot -5.85129 1.05639
ltoes -17.1557
975
root -32.133 16.6738 -4.631 -874.634 86.9089 -897.967
lowerback 28.663 -1.21646 1.32069
upperback 5.97115 -0.670212 -0.323258
thorax -9.14603 -0.128972 -0.9234
lowerneck 6.07741 -0.466821 0.696904
upperneck -17.9995 0.199343 2.66517
head -6.46866 -0.0313436 0.704543
rclavicle -3.80673e-014 -1.39149e-014
rhumerus -27.7008 3.31706 -87.5777
rradius 34.9519
rwrist -3.18045
rhand -20.0975 -6.66078
rfingers 7.12502
rthumb 6.24569 -36.5487
lclavicle -3.80673e-014 -1.39149e-014
lhumerus -29.5776 -7.86623 88.2701
lradius 34.7087
lwrist 24.2358
lhand -19.8098 10.4204
lfingers 7.12502
lthumb 6.52344 40.2999
rfemur -50.7686 -3.29165 30.4523
rtibia 48.3444
rfoot -22.6905 -11.2758
rtoes 7.19654
lfemur -64.2155 3.62079 -19.2906
ltibia 73.7265
lfoot -5.7215 1.22946
ltoes -17.1366
